<?xml version="1.0" encoding="utf-8"?>
<!-- Generator: Adobe Illustrator 25.2.3, SVG Export Plug-In . SVG Version: 6.00 Build 0)  -->
<svg version="1.1" id="Слой_1" xmlns="http://www.w3.org/2000/svg" xmlns:xlink="http://www.w3.org/1999/xlink" x="0px" y="0px"
	 viewBox="0 0 100 30" style="enable-background:new 0 0 100 30;" xml:space="preserve">
<style type="text/css">
	.st0{fill-rule:evenodd;clip-rule:evenodd;fill:#010101;}
	.st1{fill-rule:evenodd;clip-rule:evenodd;fill:#FF6B0A;}
</style>
<path class="st0" d="M55.8,0H0v30h55.8l0-15L55.8,0z M6.8,19.6c-0.4,0-0.6-0.1-0.8-0.3s-0.3-0.5-0.3-0.8v-7.8c0-0.4,0.1-0.6,0.3-0.8
	s0.5-0.3,0.8-0.3h3.4c1.1,0,2,0.3,2.5,0.8c0.6,0.6,0.9,1.3,0.9,2.3s-0.3,1.8-0.9,2.3c-0.6,0.6-1.4,0.8-2.5,0.8H7.9v2.6
	c0,0.4-0.1,0.6-0.3,0.8S7.2,19.6,6.8,19.6z M7.9,14.2h2c0.6,0,1-0.1,1.3-0.4c0.3-0.3,0.4-0.6,0.4-1.1s-0.1-0.8-0.4-1.1
	s-0.7-0.4-1.3-0.4h-2C7.9,11.2,7.9,14.2,7.9,14.2z M21.3,15.6c0.3,0.2,0.5,0.5,0.8,0.9l0.9,1.6c0.1,0.2,0.2,0.5,0.2,0.7
	s-0.1,0.4-0.3,0.5s-0.4,0.2-0.7,0.2s-0.6-0.1-0.7-0.2c-0.2-0.1-0.4-0.3-0.5-0.6l-1.3-2.5c-0.1-0.3-0.3-0.4-0.5-0.5s-0.4-0.1-0.7-0.1
	h-1.1v2.8c0,0.4-0.1,0.6-0.3,0.8s-0.5,0.3-0.8,0.3c-0.4,0-0.6-0.1-0.8-0.3s-0.3-0.5-0.3-0.8v-7.8c0-0.4,0.1-0.6,0.3-0.8
	s0.5-0.3,0.8-0.3h3.4c1.1,0,2,0.3,2.5,0.8c0.6,0.5,0.9,1.3,0.9,2.2c0,0.6-0.1,1.1-0.4,1.6c-0.3,0.4-0.7,0.8-1.2,1
	C20.9,15.5,21,15.5,21.3,15.6z M17.2,14.1h1.9c0.6,0,1-0.1,1.3-0.4c0.3-0.2,0.4-0.6,0.4-1c0-0.5-0.1-0.8-0.4-1s-0.7-0.3-1.3-0.3
	h-1.9V14.1z M29.3,19.6c-1,0-1.8-0.2-2.6-0.6c-0.7-0.4-1.3-1-1.7-1.8c-0.4-0.8-0.6-1.7-0.6-2.7c0-0.8,0.1-1.5,0.3-2.1
	c0.2-0.6,0.6-1.2,1-1.6s0.9-0.8,1.5-1s1.3-0.4,2-0.4c1,0,1.8,0.2,2.6,0.6s1.3,1,1.7,1.8c0.4,0.8,0.6,1.6,0.6,2.7
	c0,0.8-0.1,1.5-0.4,2.1c-0.2,0.6-0.6,1.2-1,1.6s-0.9,0.8-1.5,1C30.7,19.5,30,19.6,29.3,19.6z M29.3,17.8c0.6,0,1-0.1,1.4-0.4
	s0.7-0.6,0.9-1.1s0.3-1.1,0.3-1.7c0-1-0.2-1.8-0.7-2.4s-1.1-0.8-1.9-0.8c-0.5,0-1,0.1-1.4,0.4s-0.7,0.6-0.9,1.1s-0.3,1.1-0.3,1.8
	c0,1,0.2,1.8,0.7,2.4C27.8,17.5,28.5,17.8,29.3,17.8z M37,19.4c-0.4,0-0.6-0.1-0.8-0.3c-0.2-0.2-0.3-0.5-0.3-0.8v-7.6
	c0-0.4,0.1-0.6,0.3-0.8s0.5-0.3,0.8-0.3h2.7c1.7,0,3,0.4,3.9,1.3S45,13,45,14.5c0,0.8-0.1,1.5-0.4,2.1s-0.6,1.1-1,1.5s-1,0.7-1.7,1
	c-0.7,0.2-1.4,0.3-2.3,0.3H37z M38,17.7h1.6c0.5,0,1-0.1,1.4-0.2s0.7-0.3,1-0.6c0.3-0.3,0.5-0.6,0.6-1s0.2-0.9,0.2-1.4
	c0-1.1-0.3-1.9-0.8-2.4s-1.3-0.8-2.4-0.8H38V17.7z"/>
<path class="st1" d="M100,0H55.8v30H100V0z M66.2,19.1c-0.4,0-0.8,0-1.2-0.1c-0.4-0.1-0.8-0.1-1.2-0.3c-0.4-0.1-0.7-0.3-1-0.4
	c-0.2-0.1-0.3-0.3-0.4-0.4s-0.1-0.4-0.1-0.6s0.1-0.4,0.2-0.5c0.1-0.1,0.3-0.2,0.4-0.3c0.2,0,0.4,0,0.6,0.1c0.4,0.2,0.8,0.4,1.3,0.5
	s0.9,0.2,1.4,0.2c0.7,0,1.2-0.1,1.5-0.3c0.3-0.2,0.4-0.5,0.4-0.8c0-0.3-0.1-0.5-0.3-0.6c-0.2-0.2-0.6-0.3-1.1-0.4l-1.6-0.3
	c-0.9-0.2-1.6-0.5-2-1s-0.7-1-0.7-1.8c0-0.5,0.1-0.9,0.3-1.3c0.2-0.4,0.5-0.7,0.8-1c0.4-0.3,0.8-0.5,1.3-0.6C65.3,9,65.8,9,66.4,9
	s1.1,0,1.6,0.2s0.9,0.3,1.3,0.6c0.2,0.1,0.3,0.3,0.4,0.4c0.1,0.2,0.1,0.3,0.1,0.5s-0.1,0.3-0.2,0.5c-0.1,0.1-0.3,0.2-0.4,0.3
	c-0.2,0-0.4,0-0.6-0.1c-0.3-0.2-0.6-0.3-1-0.4c-0.3-0.1-0.7-0.1-1.1-0.1s-0.7,0.1-1,0.2s-0.5,0.2-0.6,0.4s-0.2,0.4-0.2,0.6
	c0,0.3,0.1,0.5,0.3,0.7c0.2,0.2,0.5,0.3,1,0.4l1.6,0.3c0.9,0.2,1.6,0.5,2,0.9s0.7,1,0.7,1.7c0,0.5-0.1,0.9-0.3,1.3
	c-0.2,0.4-0.5,0.7-0.8,1s-0.8,0.5-1.3,0.6C67.3,19.1,66.8,19.1,66.2,19.1z M71.8,19.1c-0.3,0-0.5-0.1-0.6-0.2s-0.3-0.3-0.3-0.5
	s0-0.4,0.1-0.7l3.6-7.9c0.1-0.3,0.3-0.5,0.5-0.7c0.2,0,0.4-0.1,0.7-0.1s0.5,0.1,0.7,0.2c0.2,0.1,0.4,0.4,0.5,0.7l3.6,7.9
	c0.1,0.3,0.2,0.5,0.1,0.7s-0.1,0.4-0.3,0.5c-0.2,0.1-0.4,0.2-0.6,0.2c-0.3,0-0.6-0.1-0.7-0.2s-0.3-0.4-0.5-0.7L78,17l0,0h-4.6l0,0
	l-0.6,1.3c-0.1,0.3-0.3,0.6-0.4,0.7S72.1,19.1,71.8,19.1z M75.8,11.4l-1.6,3.7l0,0h3.2l0,0L75.8,11.4L75.8,11.4z M84.3,19.1
	c-0.8,0-1.5-0.2-1.9-0.7s-0.6-1.1-0.6-2.1V10c0-0.4,0.1-0.6,0.3-0.8C82.3,9.1,82.6,9,82.9,9s0.6,0.1,0.8,0.3
	c0.2,0.2,0.3,0.5,0.3,0.8v6.2c0,0.4,0.1,0.7,0.2,0.8s0.4,0.3,0.7,0.3c0.1,0,0.1,0,0.2,0s0.1,0,0.2,0s0.3,0,0.3,0.1s0.1,0.3,0.1,0.6
	c0,0.3-0.1,0.5-0.2,0.6S85.2,18.9,85,19c-0.1,0-0.2,0-0.3,0C84.6,19.1,84.5,19.1,84.3,19.1z M87.8,19c-0.4,0-0.6-0.1-0.8-0.3
	s-0.3-0.5-0.3-0.8v-7.6c0-0.4,0.1-0.6,0.3-0.8c0.2-0.2,0.5-0.3,0.8-0.3h4.9c0.3,0,0.5,0.1,0.6,0.2c0.1,0.1,0.2,0.4,0.2,0.6
	c0,0.3-0.1,0.5-0.2,0.6s-0.4,0.2-0.6,0.2h-3.9v2.3h3.6c0.3,0,0.5,0.1,0.7,0.2s0.2,0.4,0.2,0.6c0,0.3-0.1,0.5-0.2,0.6
	s-0.4,0.2-0.7,0.2h-3.6v2.5h3.9c0.3,0,0.5,0.1,0.6,0.2s0.2,0.4,0.2,0.6c0,0.3-0.1,0.5-0.2,0.6C93.2,18.9,93,19,92.7,19H87.8z"/>
</svg>
