<svg aria-hidden="true" style="position:absolute;width:0;height:0;overflow:hidden" xmlns="http://www.w3.org/2000/svg">
  <defs>
    <symbol id="logo" viewBox="0 0 107 32">
      <path fill="#010101" style="fill: var(--color1, #010101)"
        d="M59.52 0h-59.52v32h59.52v-32zM7.253 20.907c-0.427 0-0.64-0.107-0.853-0.32s-0.32-0.533-0.32-0.853v-8.32c0-0.427 0.107-0.64 0.32-0.853s0.533-0.32 0.853-0.32h3.627c1.173 0 2.133 0.32 2.667 0.853 0.64 0.64 0.96 1.387 0.96 2.453s-0.32 1.92-0.96 2.453c-0.64 0.64-1.493 0.853-2.667 0.853h-2.453v2.773c0 0.427-0.107 0.64-0.32 0.853s-0.427 0.427-0.853 0.427zM8.427 15.147h2.133c0.64 0 1.067-0.107 1.387-0.427s0.427-0.64 0.427-1.173-0.107-0.853-0.427-1.173-0.747-0.427-1.387-0.427h-2.133c0 0 0 3.2 0 3.2zM22.72 16.64c0.32 0.213 0.533 0.533 0.853 0.96l0.96 1.707c0.107 0.213 0.213 0.533 0.213 0.747s-0.107 0.427-0.32 0.533-0.427 0.213-0.747 0.213-0.64-0.107-0.747-0.213c-0.213-0.107-0.427-0.32-0.533-0.64l-1.387-2.667c-0.107-0.32-0.32-0.427-0.533-0.533s-0.427-0.107-0.747-0.107h-1.173v2.987c0 0.427-0.107 0.64-0.32 0.853s-0.533 0.32-0.853 0.32c-0.427 0-0.64-0.107-0.853-0.32s-0.32-0.533-0.32-0.853v-8.32c0-0.427 0.107-0.64 0.32-0.853s0.533-0.32 0.853-0.32h3.627c1.173 0 2.133 0.32 2.667 0.853 0.64 0.533 0.96 1.387 0.96 2.347 0 0.64-0.107 1.173-0.427 1.707-0.32 0.427-0.747 0.853-1.28 1.067-0.64 0.427-0.533 0.427-0.213 0.533zM18.347 15.040h2.027c0.64 0 1.067-0.107 1.387-0.427 0.32-0.213 0.427-0.64 0.427-1.067 0-0.533-0.107-0.853-0.427-1.067s-0.747-0.32-1.387-0.32h-2.027v2.88zM31.253 20.907c-1.067 0-1.92-0.213-2.773-0.64-0.747-0.427-1.387-1.067-1.813-1.92s-0.64-1.813-0.64-2.88c0-0.853 0.107-1.6 0.32-2.24s0.64-1.28 1.067-1.707 0.96-0.853 1.6-1.067 1.387-0.427 2.133-0.427c1.067 0 1.92 0.213 2.773 0.64s1.387 1.067 1.813 1.92c0.427 0.853 0.64 1.707 0.64 2.88 0 0.853-0.107 1.6-0.427 2.24-0.213 0.64-0.64 1.28-1.067 1.707s-0.96 0.853-1.6 1.067c-0.533 0.32-1.28 0.427-2.027 0.427zM31.253 18.987c0.64 0 1.067-0.107 1.493-0.427s0.747-0.64 0.96-1.173 0.32-1.173 0.32-1.813c0-1.067-0.213-1.92-0.747-2.56s-1.173-0.853-2.027-0.853c-0.533 0-1.067 0.107-1.493 0.427s-0.747 0.64-0.96 1.173-0.32 1.173-0.32 1.92c0 1.067 0.213 1.92 0.747 2.56 0.427 0.427 1.173 0.747 2.027 0.747zM39.467 20.693c-0.427 0-0.64-0.107-0.853-0.32s-0.32-0.533-0.32-0.853v-8.107c0-0.427 0.107-0.64 0.32-0.853s0.533-0.32 0.853-0.32h2.88c1.813 0 3.2 0.427 4.16 1.387s1.493 2.24 1.493 3.84c0 0.853-0.107 1.6-0.427 2.24s-0.64 1.173-1.067 1.6-1.067 0.747-1.813 1.067c-0.747 0.213-1.493 0.32-2.453 0.32h-2.773zM40.533 18.88h1.707c0.533 0 1.067-0.107 1.493-0.213s0.747-0.32 1.067-0.64c0.32-0.32 0.533-0.64 0.64-1.067s0.213-0.96 0.213-1.493c0-1.173-0.32-2.027-0.853-2.56s-1.387-0.853-2.56-0.853h-1.707v6.827z"></path>
      <path fill="#ff6b0a" style="fill: var(--color22, #ff6b0a)"
        d="M106.667 0h-47.147v32h47.147v-32zM70.613 20.373c-0.427 0-0.853 0-1.28-0.107s-0.853-0.107-1.28-0.32c-0.427-0.107-0.747-0.32-1.067-0.427-0.213-0.107-0.32-0.32-0.427-0.427s-0.107-0.427-0.107-0.64 0.107-0.427 0.213-0.533c0.107-0.107 0.32-0.213 0.427-0.32 0.213 0 0.427 0 0.64 0.107 0.427 0.213 0.853 0.427 1.387 0.533s0.96 0.213 1.493 0.213c0.747 0 1.28-0.107 1.6-0.32s0.427-0.533 0.427-0.853c0-0.32-0.107-0.533-0.32-0.64-0.213-0.213-0.64-0.32-1.173-0.427l-1.707-0.32c-0.96-0.213-1.707-0.533-2.133-1.067s-0.747-1.067-0.747-1.92c0-0.533 0.107-0.96 0.32-1.387s0.533-0.747 0.853-1.067c0.427-0.32 0.853-0.533 1.387-0.64 0.533-0.213 1.067-0.213 1.707-0.213s1.173 0 1.707 0.213 0.96 0.32 1.387 0.64c0.213 0.107 0.32 0.32 0.427 0.427 0.107 0.213 0.107 0.32 0.107 0.533s-0.107 0.32-0.213 0.533c-0.107 0.107-0.32 0.213-0.427 0.32-0.213 0-0.427 0-0.64-0.107-0.32-0.213-0.64-0.32-1.067-0.427-0.32-0.107-0.747-0.107-1.173-0.107s-0.747 0.107-1.067 0.213-0.533 0.213-0.64 0.427-0.213 0.427-0.213 0.64c0 0.32 0.107 0.533 0.32 0.747s0.533 0.32 1.067 0.427l1.707 0.32c0.96 0.213 1.707 0.533 2.133 0.96s0.747 1.067 0.747 1.813c0 0.533-0.107 0.96-0.32 1.387s-0.533 0.747-0.853 1.067-0.853 0.533-1.387 0.64c-0.64 0.107-1.173 0.107-1.813 0.107zM76.587 20.373c-0.32 0-0.533-0.107-0.64-0.213s-0.32-0.32-0.32-0.533 0-0.427 0.107-0.747l3.84-8.427c0.107-0.32 0.32-0.533 0.533-0.747 0.213 0 0.427-0.107 0.747-0.107s0.533 0.107 0.747 0.213c0.213 0.107 0.427 0.427 0.533 0.747l3.84 8.427c0.107 0.32 0.213 0.533 0.107 0.747s-0.107 0.427-0.32 0.533c-0.213 0.107-0.427 0.213-0.64 0.213-0.32 0-0.64-0.107-0.747-0.213s-0.32-0.427-0.533-0.747l-0.64-1.387h-4.907l-0.64 1.387c-0.107 0.32-0.32 0.64-0.427 0.747s-0.32 0.107-0.64 0.107zM80.853 12.16l-1.707 3.947h3.413l-1.707-3.947zM89.92 20.373c-0.853 0-1.6-0.213-2.027-0.747s-0.64-1.173-0.64-2.24v-6.72c0-0.427 0.107-0.64 0.32-0.853 0.213-0.107 0.533-0.213 0.853-0.213s0.64 0.107 0.853 0.32c0.213 0.213 0.32 0.533 0.32 0.853v6.613c0 0.427 0.107 0.747 0.213 0.853s0.427 0.32 0.747 0.32c0.107 0 0.107 0 0.213 0s0.107 0 0.213 0 0.32 0 0.32 0.107 0.107 0.32 0.107 0.64c0 0.32-0.107 0.533-0.213 0.64s-0.32 0.213-0.533 0.32c-0.107 0-0.213 0-0.32 0-0.107 0.107-0.213 0.107-0.427 0.107zM93.653 20.267c-0.427 0-0.64-0.107-0.853-0.32s-0.32-0.533-0.32-0.853v-8.107c0-0.427 0.107-0.64 0.32-0.853s0.533-0.32 0.853-0.32h5.227c0.32 0 0.533 0.107 0.64 0.213s0.213 0.427 0.213 0.64c0 0.32-0.107 0.533-0.213 0.64s-0.427 0.213-0.64 0.213h-4.16v2.453h3.84c0.32 0 0.533 0.107 0.747 0.213s0.213 0.427 0.213 0.64c0 0.32-0.107 0.533-0.213 0.64s-0.427 0.213-0.747 0.213h-3.84v2.667h4.16c0.32 0 0.533 0.107 0.64 0.213s0.213 0.427 0.213 0.64c0 0.32-0.107 0.533-0.213 0.64-0.107 0.32-0.32 0.427-0.64 0.427h-5.227z"></path>
 </symbol>
    <symbol id="arrow" viewBox="0 0 32 32">
      <path
        d="M0 16c0 8.837 7.163 16 16 16s16-7.163 16-16-7.163-16-16-16-16 7.163-16 16zM29 16c0 7.18-5.82 13-13 13s-13-5.82-13-13 5.82-13 13-13 13 5.82 13 13z"></path>
      <path d="M22.086 20.914l2.829-2.829-8.914-8.914-8.914 8.914 2.828 2.828 6.086-6.086z"></path>
    </symbol>
    <symbol id="switcher" viewBox="0 0 32 32">
      <path d="M16 8c-4.418 0-8 3.582-8 8s3.582 8 8 8 8-3.582 8-8-3.582-8-8-8zM16 21v-10c2.757 0 5 2.243 5 5s-2.243 5-5 5zM16 26c1.105 0 2 0.895 2 2v2c0 1.105-0.895 2-2 2s-2-0.895-2-2v-2c0-1.105 0.895-2 2-2zM16 6c-1.105 0-2-0.895-2-2v-2c0-1.105 0.895-2 2-2s2 0.895 2 2v2c0 1.105-0.895 2-2 2zM30 14c1.105 0 2 0.895 2 2s-0.895 2-2 2h-2c-1.105 0-2-0.895-2-2s0.895-2 2-2h2zM6 16c0 1.105-0.895 2-2 2h-2c-1.105 0-2-0.895-2-2s0.895-2 2-2h2c1.105 0 2 0.895 2 2zM25.899 23.071l1.414 1.414c0.781 0.781 0.781 2.047 0 2.828s-2.047 0.781-2.828 0l-1.414-1.414c-0.781-0.781-0.781-2.047 0-2.828s2.047-0.781 2.828 0zM6.101 8.929l-1.414-1.414c-0.781-0.781-0.781-2.047 0-2.828s2.047-0.781 2.828 0l1.414 1.414c0.781 0.781 0.781 2.047 0 2.828s-2.047 0.781-2.828 0zM25.899 8.929c-0.781 0.781-2.047 0.781-2.828 0s-0.781-2.047 0-2.828l1.414-1.414c0.781-0.781 2.047-0.781 2.828 0s0.781 2.047 0 2.828l-1.414 1.414zM6.101 23.071c0.781-0.781 2.047-0.781 2.828 0s0.781 2.047 0 2.828l-1.414 1.414c-0.781 0.781-2.047 0.781-2.828 0s-0.781-2.047 0-2.828l1.414-1.414z"></path>
    </symbol>
  </defs>
</svg>
